<svg xmlns="http://www.w3.org/2000/svg" width="29" height="99" viewBox="0 0 29 99">
  <g id="divider_copy_3" data-name="divider copy 3" transform="translate(-746 -2956)">
    <g id="Group_10" data-name="Group 10">
      <path id="Shape_10_copy" data-name="Shape 10 copy" d="M746,2956.708l.711-.708,14.216,14.164-.711.708L746,2956.708" fill="#c2c2c2"/>
      <path id="Shape_10_copy_3" data-name="Shape 10 copy 3" d="M746,2984.75l.284-.283-.284-.283,14.216-14.163.711.708-13.789,13.738,13.789,13.739-.711.708Z" fill="#c2c2c2"/>
      <path id="Shape_10_copy_4" data-name="Shape 10 copy 4" d="M746,3012.793l.284-.283-.284-.283,14.216-14.164.711.708-13.789,13.739,13.789,13.738-.711.708Z" fill="#c2c2c2"/>
      <path id="Shape_10_copy_5" data-name="Shape 10 copy 5" d="M746,3040.835l.284-.283-.284-.283,14.216-14.163.711.708-13.788,13.739,13.788,13.738-.711.708Z" fill="#c2c2c2"/>
    </g>
    <g id="Group_10_copy" data-name="Group 10 copy">
      <path id="Shape_10_copy-2" data-name="Shape 10 copy" d="M753.037,2956.708l.711-.708,14.216,14.164-.711.708-14.216-14.164" fill="#c2c2c2"/>
      <path id="Shape_10_copy_3-2" data-name="Shape 10 copy 3" d="M753.036,2984.75l.284-.283-.284-.283,14.216-14.163.711.708-13.79,13.738,13.79,13.739-.711.708Z" fill="#c2c2c2"/>
      <path id="Shape_10_copy_4-2" data-name="Shape 10 copy 4" d="M753.036,3012.793l.284-.283-.284-.283,14.216-14.164.711.708-13.79,13.739,13.79,13.738-.711.708Z" fill="#c2c2c2"/>
      <path id="Shape_10_copy_5-2" data-name="Shape 10 copy 5" d="M753.036,3040.835l.284-.283-.284-.283,14.216-14.163.711.708-13.789,13.739,13.789,13.738-.711.708Z" fill="#c2c2c2"/>
    </g>
    <g id="Group_10_copy_2" data-name="Group 10 copy 2">
      <path id="Shape_10_copy-3" data-name="Shape 10 copy" d="M760.073,2956.708l.711-.708L775,2970.163l-.711.708-14.216-14.164" fill="#c2c2c2"/>
      <path id="Shape_10_copy_3-3" data-name="Shape 10 copy 3" d="M760.073,2984.75l.284-.283-.284-.283,14.216-14.163.711.708-13.79,13.738L775,2998.206l-.711.708Z" fill="#c2c2c2"/>
      <path id="Shape_10_copy_4-3" data-name="Shape 10 copy 4" d="M760.073,3012.793l.284-.283-.284-.283,14.216-14.164.711.708-13.79,13.739L775,3026.248l-.711.708Z" fill="#c2c2c2"/>
      <path id="Shape_10_copy_5-3" data-name="Shape 10 copy 5" d="M760.073,3040.835l.284-.283-.284-.283,14.216-14.163.711.708-13.789,13.739L775,3054.291l-.711.708Z" fill="#c2c2c2"/>
    </g>
  </g>
</svg>
